<mxfile host="app.diagrams.net" agent="Mozilla/5.0 (Windows NT 10.0; Win64; x64) AppleWebKit/537.36 (KHTML, like Gecko) Chrome/133.0.0.0 Safari/537.36" version="26.0.11">
  <diagram name="Page-1" id="3J0oUHlYS0COV-YWWwR0">
    <mxGraphModel dx="1518" dy="655" grid="1" gridSize="10" guides="1" tooltips="1" connect="1" arrows="1" fold="1" page="1" pageScale="1" pageWidth="850" pageHeight="1100" math="0" shadow="0">
      <root>
        <mxCell id="0" />
        <mxCell id="1" parent="0" />
        <mxCell id="ApXYs3M32r2te61f3bqz-6" value="Browse Products" style="curved=1;startArrow=none;endArrow=block;exitX=0;exitY=0.99;entryX=0;entryY=0.27;rounded=0;" parent="1" edge="1">
          <mxGeometry relative="1" as="geometry">
            <Array as="points">
              <mxPoint x="20" y="110" />
            </Array>
            <mxPoint x="127" y="73.46000000000004" as="sourcePoint" />
          </mxGeometry>
        </mxCell>
        <mxCell id="ApXYs3M32r2te61f3bqz-17" value="" style="ellipse;whiteSpace=wrap;html=1;aspect=fixed;" parent="1" vertex="1">
          <mxGeometry x="662" y="480" width="210" height="210" as="geometry" />
        </mxCell>
        <mxCell id="ApXYs3M32r2te61f3bqz-18" value="Fields And Farmers" style="text;html=1;align=center;verticalAlign=middle;whiteSpace=wrap;rounded=0;" parent="1" vertex="1">
          <mxGeometry x="692" y="530" width="150" height="100" as="geometry" />
        </mxCell>
        <mxCell id="ApXYs3M32r2te61f3bqz-47" value="" style="endArrow=classic;html=1;rounded=0;exitX=1.006;exitY=0.356;exitDx=0;exitDy=0;exitPerimeter=0;entryX=0;entryY=0.5;entryDx=0;entryDy=0;" parent="1" source="ApXYs3M32r2te61f3bqz-65" edge="1" target="ApXYs3M32r2te61f3bqz-17">
          <mxGeometry relative="1" as="geometry">
            <mxPoint x="340" y="579.6800000000001" as="sourcePoint" />
            <mxPoint x="660" y="580" as="targetPoint" />
          </mxGeometry>
        </mxCell>
        <mxCell id="ApXYs3M32r2te61f3bqz-48" value="Label" style="edgeLabel;resizable=0;html=1;;align=center;verticalAlign=middle;" parent="ApXYs3M32r2te61f3bqz-47" connectable="0" vertex="1">
          <mxGeometry relative="1" as="geometry" />
        </mxCell>
        <mxCell id="ApXYs3M32r2te61f3bqz-49" value="Make Payment" style="edgeLabel;html=1;align=center;verticalAlign=middle;resizable=0;points=[];" parent="ApXYs3M32r2te61f3bqz-47" vertex="1" connectable="0">
          <mxGeometry x="0.0129" y="-2" relative="1" as="geometry">
            <mxPoint as="offset" />
          </mxGeometry>
        </mxCell>
        <mxCell id="ApXYs3M32r2te61f3bqz-52" value="" style="endArrow=classic;html=1;rounded=0;exitX=1.006;exitY=0.628;exitDx=0;exitDy=0;exitPerimeter=0;" parent="1" edge="1" source="ApXYs3M32r2te61f3bqz-65">
          <mxGeometry relative="1" as="geometry">
            <mxPoint x="410" y="610" as="sourcePoint" />
            <mxPoint x="660" y="604" as="targetPoint" />
          </mxGeometry>
        </mxCell>
        <mxCell id="ApXYs3M32r2te61f3bqz-54" value="Place Order" style="edgeLabel;html=1;align=center;verticalAlign=middle;resizable=0;points=[];" parent="ApXYs3M32r2te61f3bqz-52" vertex="1" connectable="0">
          <mxGeometry x="0.0224" y="2" relative="1" as="geometry">
            <mxPoint x="-57" as="offset" />
          </mxGeometry>
        </mxCell>
        <mxCell id="ApXYs3M32r2te61f3bqz-55" value="" style="endArrow=classic;html=1;rounded=0;exitX=0.998;exitY=0.913;exitDx=0;exitDy=0;exitPerimeter=0;entryX=0.016;entryY=0.654;entryDx=0;entryDy=0;entryPerimeter=0;" parent="1" source="ApXYs3M32r2te61f3bqz-65" target="ApXYs3M32r2te61f3bqz-17" edge="1">
          <mxGeometry relative="1" as="geometry">
            <mxPoint x="282.85000000000014" y="621.89" as="sourcePoint" />
            <mxPoint x="400" y="640" as="targetPoint" />
          </mxGeometry>
        </mxCell>
        <mxCell id="ApXYs3M32r2te61f3bqz-56" value="Label" style="edgeLabel;resizable=0;html=1;;align=center;verticalAlign=middle;" parent="ApXYs3M32r2te61f3bqz-55" connectable="0" vertex="1">
          <mxGeometry relative="1" as="geometry" />
        </mxCell>
        <mxCell id="ApXYs3M32r2te61f3bqz-57" value="Browse Product" style="edgeLabel;html=1;align=center;verticalAlign=middle;resizable=0;points=[];" parent="ApXYs3M32r2te61f3bqz-55" vertex="1" connectable="0">
          <mxGeometry x="0.0165" relative="1" as="geometry">
            <mxPoint as="offset" />
          </mxGeometry>
        </mxCell>
        <mxCell id="ApXYs3M32r2te61f3bqz-61" value="" style="endArrow=classic;html=1;rounded=0;exitX=1;exitY=0;exitDx=0;exitDy=0;" parent="1" edge="1">
          <mxGeometry relative="1" as="geometry">
            <mxPoint x="347" y="570" as="sourcePoint" />
            <mxPoint x="662" y="570" as="targetPoint" />
          </mxGeometry>
        </mxCell>
        <mxCell id="ApXYs3M32r2te61f3bqz-63" value="Track Order" style="edgeLabel;html=1;align=center;verticalAlign=middle;resizable=0;points=[];" parent="ApXYs3M32r2te61f3bqz-61" vertex="1" connectable="0">
          <mxGeometry x="0.018" y="-2" relative="1" as="geometry">
            <mxPoint x="-45" as="offset" />
          </mxGeometry>
        </mxCell>
        <mxCell id="ApXYs3M32r2te61f3bqz-65" value="ðŸ‘¤ User" style="whiteSpace=wrap;strokeWidth=2;" parent="1" vertex="1">
          <mxGeometry x="240" y="560" width="155" height="64" as="geometry" />
        </mxCell>
        <mxCell id="ApXYs3M32r2te61f3bqz-66" value="" style="endArrow=classic;html=1;rounded=0;exitX=-0.009;exitY=0.154;exitDx=0;exitDy=0;exitPerimeter=0;" parent="1" source="ApXYs3M32r2te61f3bqz-75" edge="1">
          <mxGeometry relative="1" as="geometry">
            <mxPoint x="1040.0000000000005" y="576" as="sourcePoint" />
            <mxPoint x="870" y="577" as="targetPoint" />
          </mxGeometry>
        </mxCell>
        <mxCell id="ApXYs3M32r2te61f3bqz-67" value="Manage Users" style="edgeLabel;resizable=0;html=1;;align=center;verticalAlign=middle;" parent="ApXYs3M32r2te61f3bqz-66" connectable="0" vertex="1">
          <mxGeometry relative="1" as="geometry" />
        </mxCell>
        <mxCell id="ApXYs3M32r2te61f3bqz-68" value="" style="endArrow=classic;html=1;rounded=0;entryX=0.991;entryY=0.545;entryDx=0;entryDy=0;entryPerimeter=0;exitX=0;exitY=0.5;exitDx=0;exitDy=0;" parent="1" source="ApXYs3M32r2te61f3bqz-75" target="ApXYs3M32r2te61f3bqz-17" edge="1">
          <mxGeometry relative="1" as="geometry">
            <mxPoint x="1040" y="603" as="sourcePoint" />
            <mxPoint x="1030" y="600" as="targetPoint" />
          </mxGeometry>
        </mxCell>
        <mxCell id="ApXYs3M32r2te61f3bqz-69" value="Approve Products" style="edgeLabel;resizable=0;html=1;;align=center;verticalAlign=middle;" parent="ApXYs3M32r2te61f3bqz-68" connectable="0" vertex="1">
          <mxGeometry relative="1" as="geometry" />
        </mxCell>
        <mxCell id="ApXYs3M32r2te61f3bqz-70" value="" style="endArrow=classic;html=1;rounded=0;entryX=0.982;entryY=0.618;entryDx=0;entryDy=0;entryPerimeter=0;exitX=0;exitY=0.75;exitDx=0;exitDy=0;" parent="1" source="ApXYs3M32r2te61f3bqz-75" target="ApXYs3M32r2te61f3bqz-17" edge="1">
          <mxGeometry relative="1" as="geometry">
            <mxPoint x="1040" y="630" as="sourcePoint" />
            <mxPoint x="868.6400000000001" y="614.25" as="targetPoint" />
          </mxGeometry>
        </mxCell>
        <mxCell id="ApXYs3M32r2te61f3bqz-71" value="Monitor Orders" style="edgeLabel;resizable=0;html=1;;align=center;verticalAlign=middle;" parent="ApXYs3M32r2te61f3bqz-70" connectable="0" vertex="1">
          <mxGeometry relative="1" as="geometry" />
        </mxCell>
        <mxCell id="ApXYs3M32r2te61f3bqz-75" value="ðŸ‘¤ Admin" style="whiteSpace=wrap;strokeWidth=2;" parent="1" vertex="1">
          <mxGeometry x="1110" y="570" width="131" height="54" as="geometry" />
        </mxCell>
      </root>
    </mxGraphModel>
  </diagram>
</mxfile>
